# xmcd
#
# Track frame offsets:
#	150
#	8583
#	18503
#	29894
#	37428
#	48595
#	56891
#	67753
#	76868
#	86156
#	96143
#	108009
#	120047
#	132422
#	141669
#
# Disc length: 2036 seconds
#
# Revision: 1
# Processed by: cddbd v1.5.2PL0 Copyright (c) Steve Scherf et al.
# Submitted via: audiograbber 1.83.01
#
DISCID=cc07f20f
DTITLE=Johnny Cash - The Very Best Of - Volume 2
DYEAR=1900
DGENRE=Oldies
TTITLE0=Country Boy  
TTITLE1=Ballad Of A Teenage Queen
TTITLE2=Big River
TTITLE3=Come In Stranger
TTITLE4=Don't Make Me Go
TTITLE5=Always Alone
TTITLE6=Belshazah
TTITLE7=Blue Train
TTITLE8=Down The Street To 301
TTITLE9=I Could Never Be Ashamed Of You
TTITLE10=Home Of The Blues
TTITLE11=You're The Nearest Thing To Heaven
TTITLE12=Give My Love To Rose
TTITLE13=I Couldn't Keep From Crying
TTITLE14=Mean Eyed Cat
EXTD=
EXTT0=
EXTT1=
EXTT2=
EXTT3=
EXTT4=
EXTT5=
EXTT6=
EXTT7=
EXTT8=
EXTT9=
EXTT10=
EXTT11=
EXTT12=
EXTT13=
EXTT14=
PLAYORDER=
